<?xml version="1.0" encoding="UTF-8"?>
<svg height="128" viewBox="0 0 128 128" width="128" xmlns="http://www.w3.org/2000/svg"
  xmlns:xlink="http://www.w3.org/1999/xlink">
  <linearGradient id="gradBar" x1="0%" y1="0%" x2="0%" y2="100%">
    <stop offset="0%" stop-color="#ccc" />
    <stop offset="33%" stop-color="#eee" />
    <stop offset="100%" stop-color="#999" />
  </linearGradient>
  <linearGradient id="gradBg" x1="0%" y1="0%" x2="0%" y2="100%">
    <stop offset="0%" stop-color="#555" />
    <stop offset="100%" stop-color="#444" />
  </linearGradient>

  <radialGradient id="gradOverheadBg" cx="64" cy="64" gradientUnits="userSpaceOnUse" r="96">
    <stop offset="0" stop-color="#fff" />
    <stop offset="1" stop-color="#ffe199" />
  </radialGradient>
  <linearGradient id="gradPhotoBg" x1="90" x2="32" y1="90" y2="42" gradientUnits="userSpaceOnUse">
    <stop offset="0" stop-color="#ffa348" />
    <stop offset="0.5" stop-color="#c061cb" />
    <stop offset="1" stop-color="#1c71d8" />
  </linearGradient>
  <linearGradient id="gradPhotoB" gradientUnits="userSpaceOnUse">
    <stop offset="0" stop-color="#fff" />
    <stop offset="1" stop-color="#fff" stop-opacity="0" />
  </linearGradient>
  <linearGradient xlink:href="#gradPhotoB" x1="30" x2="30" y1="0" y2="58.5" id="gradPhoto1" />
  <linearGradient xlink:href="#gradPhotoB" x1="16" x2="16" y1="0" y2="28.9" id="gradPhoto2" />
  <linearGradient xlink:href="#gradPhotoB" x1="0" x2="0" y1="54.25" y2="69.25" id="gradPhoto3" />
  <clipPath id="photoClip">
    <rect x="32" y="48" width="64" height="40" rx="4" />
  </clipPath>

  <!--Ring-->
  <circle cx="64" cy="121" r="4" stroke-width="2" fill="none" stroke="#555" />
  <!--Projector Screen-->
  <rect x="12" y="32" width="104" height="82" fill="url(#gradBg)" />
  <!--Screen Bars-->
  <rect x="8" y="28" width="112" height="8" rx="4" fill="url(#gradBar)" />
  <rect x="8" y="112" width="112" height="4" rx="2" fill="url(#gradBar)" />
  <!--Overhead Background-->
  <rect x="16" y="40" width="96" height="68" rx="4" ry="4" fill="url(#gradOverheadBg)" />
  <!--Pseudo-Text-->
  <g stroke="#000" stroke-opacity="0.7" stroke-width="4" stroke-linecap="round">
    <line x1="36" x2="52" y1="98" y2="98" />
    <line x1="60" x2="92" y1="98" y2="98" />
  </g>
  <!--Pseudo-Photo-->
  <g opacity="0.9">
    <rect x="32" y="48" width="64" height="40" rx="4" fill="url(#gradPhotoBg)" />
    <g clip-path="url(#photoClip)">
      <circle cx="80" cy="60" r="8" fill="url(#gradPhoto3)" fill-opacity="0.75" />
      <rect width="60" height="60" rx="8" transform="translate(44 64) rotate(45)" fill="url(#gradPhoto1)"
        fill-opacity="0.568" />
      <rect width="60" height="60" rx="8" transform="translate(68 72) rotate(45)" fill="url(#gradPhoto2)"
        fill-opacity="0.363" />
    </g>
  </g>
</svg>