<svg xmlns="http://www.w3.org/2000/svg" width="128" height="128">
  <linearGradient id="b" x1="0" x2="0" y1="0" y2="1">
    <stop offset="0" stop-color="#555" />
    <stop offset="1" stop-color="#444" />
  </linearGradient>
  <radialGradient id="c" cx="64" cy="64" r="96" gradientUnits="userSpaceOnUse">
    <stop offset="0" stop-color="#fff" />
    <stop offset="1" stop-color="#ffe199" />
  </radialGradient>
  <linearGradient id="e" x1="1.2" x2="0" y1=".5" y2="-.15">
    <stop offset="0" stop-color="#ffa348" />
    <stop offset=".5" stop-color="#c061cb" />
    <stop offset="1" stop-color="#1c71d8" />
  </linearGradient>
  <linearGradient id="g" x1="0" x2="0" y1="0" y2="1">
    <stop offset="0" stop-color="#fff" stop-opacity=".568" />
    <stop offset="1" stop-color="#fff" stop-opacity="0" />
  </linearGradient>
  <linearGradient id="h" x1="0" x2="0" y1="0" y2="1">
    <stop offset="0" stop-color="#fff" stop-opacity=".363" />
    <stop offset="1" stop-color="#fff" stop-opacity="0" />
  </linearGradient>
  <linearGradient id="f" x1="0" x2="0" y1="0" y2="1">
    <stop offset="0" stop-color="#fff" stop-opacity=".85" />
    <stop offset="1" stop-color="#fff" stop-opacity=".05" />
  </linearGradient>
  <linearGradient id="a">
    <stop offset="0%" stop-color="#d5d3cf" />
    <stop offset="1%" stop-color="#e4e1de" />
    <stop offset="2%" stop-color="#d5d3cf" />
    <stop offset="98%" stop-color="#d5d3cf" />
    <stop offset="99%" stop-color="#e4e1de" />
    <stop offset="100%" stop-color="#d5d3cf" />
  </linearGradient>
  <clipPath id="d">
    <rect width="64" height="40" x="32" y="48" rx="4" />
  </clipPath>
  <rect width="112" height="8" x="8" y="30" fill="url(#a)" rx="2" ry="2" />
  <path fill="url(#b)" d="M12 36h104v78H12z" />
  <rect width="112" height="8" x="8" y="28" fill="#f6f5f4" rx="2" ry="2" />
  <rect width="112" height="5" x="8" y="112" fill="url(#a)" rx="2" ry="2" />
  <circle cx="64" cy="121" r="4" fill="none" stroke="#555" stroke-width="2" />
  <rect width="112" height="4" x="8" y="112" fill="#f6f5f4" rx="2" ry="2" />
  <rect width="96" height="68" x="16" y="40" fill="url(#c)" rx="4" ry="4" />
  <path stroke="#000" stroke-linecap="round" stroke-opacity=".7" stroke-width="4" d="M36 98h16m8 0h32" />
  <g clip-path="url(#d)" opacity=".9">
    <path fill="url(#e)" d="M32 48h64v40H32z" />
    <circle cx="80" cy="60" r="8" fill="url(#f)" />
    <rect width="60" height="59" fill="url(#g)" rx="8" transform="translate(44 64) rotate(45)" />
    <rect width="60" height="29" fill="url(#h)" rx="8" transform="translate(68 72) rotate(45)" />
  </g>
</svg>